<svg xmlns="http://www.w3.org/2000/svg" version="1.1" xmlns:xlink="http://www.w3.org/1999/xlink" width="1500" height="108" viewBox="0 0 1500 108"><svg xml:space="preserve" width="1500" height="108" data-version="2" data-id="lg_dXXLGDNBf2A4t1tnad" viewBox="0 0 565 108" x="0" y="0"><rect width="100%" height="100%" fill="transparent"></rect><rect width="100" height="100" x="-50" y="-50" fill="#112122" rx="10" ry="10" transform="translate(58.3 54)scale(1.0562)"></rect><path fill="#324549" d="M190.425 33.912q0 7.02-3.33 12.53-3.33 5.5-9.5 8.65-6.17 3.14-14.52 3.14-5.08 0-10.89-1.09v26.38q0 4.72 1.21 7.2 1.21 2.48 2.67 3.33 1.45.85 1.45.6h-19.24q0 .25 1.45-.6t2.6-3.27q1.15-2.42 1.15-7.26v-60.62q0-4.84-1.15-7.38t-2.6-3.45q-1.45-.91-1.45-.66h23.72q6.17 0 10.16.78 3.99.79 7.02 2.36 5.44 2.79 8.35 8.05 2.9 5.26 2.9 11.31m-9.32 1.58q0-8.6-5.32-13.92t-14.16-5.32h-9.44v36.18q5.21.96 10.89.96 8.47 0 13.25-4.9 4.78-4.9 4.78-13"></path><rect width="52.15" height="83.53" x="-26.07" y="-41.76" fill="none" rx="0" ry="0" transform="translate(164.85 53.53)"></rect><path fill="#324549" d="M209.785 22.662q0-4.84-1.15-7.32-1.15-2.48-2.6-3.33-1.45-.85-1.45-.6h19.24q0-.25-1.46.6-1.45.85-2.66 3.33-1.21 2.48-1.21 7.32v67.15h19.85q5.44 0 9.37-2.23 3.94-2.24 5.63-5.75l-2.18 12.82h-46.58q0 .37 1.45-.54t2.6-3.63q1.15-2.72 1.15-7.93z"></path><rect width="48.76" height="83.62" x="-24.38" y="-41.81" fill="none" rx="0" ry="0" transform="translate(229.47 53.58)"></rect><path fill="#324549" d="M265.805 94.652q0 .37 1.46-.54 1.45-.91 2.6-3.63 1.15-2.72 1.15-7.93v-59.41q0-4.96-1.15-7.56-1.15-2.6-2.6-3.57-1.46-.97-1.46-.6h43.81v12.1q-2.18-7.26-13.07-7.26h-16.82v34.36h20.81q2.42 0 4.11-.79 1.7-.78 2.55-1.63.84-.85.96-1.09v11.74q-.12-.24-.96-1.09-.85-.85-2.49-1.57-1.63-.73-4.05-.73h-20.93v34.36h18.87q5.45 0 9.38-2.23 3.93-2.24 5.63-5.75l-2.18 12.82Z"></path><rect width="47.8" height="83.7" x="-23.9" y="-41.85" fill="none" rx="0" ry="0" transform="translate(290.2 53.53)"></rect><path fill="#324549" d="M383.905 87.882q-11.37 6.77-30.37 6.77h-23.84q0 .37 1.45-.66 1.46-1.03 2.6-3.81 1.15-2.79 1.15-8.11v-59.53q0-4.72-1.15-7.2-1.14-2.48-2.6-3.33-1.45-.85-1.45-.6h23.72q18.51 0 29.28 6.05 9.56 5.32 14.76 14.4 5.2 9.07 5.2 20.44 0 12.35-4.9 21.36-4.9 9.02-13.85 14.22m-4.72-64.98q-5.32-3.51-11.37-5.08-6.05-1.57-14.4-1.57h-9.8v73.56h9.8q9.92 0 16.27-1.69t10.95-5.2q5.93-4.6 9.14-12.04 3.2-7.44 3.2-17.37 0-10.52-3.69-18.45-3.69-7.92-10.1-12.16"></path><rect width="72.96" height="83.61" x="-36.48" y="-41.8" fill="none" rx="0" ry="0" transform="translate(366.68 53.57)"></rect><path fill="#324549" d="M460.135 95.992q-11.5 0-21.3-4.84t-15.73-14.52q-5.93-9.68-5.93-23.6 0-12.34 5.63-22.14t15.85-15.37q10.23-5.57 23.54-5.57 8.47 0 15.3 1.94 6.84 1.94 10.83 4.24v13.43q-3.75-6.54-11.19-10.53-7.44-3.99-15.19-3.99-10.76 0-18.69 4.53-7.93 4.54-12.16 12.89-4.24 8.35-4.24 19.6 0 12.22 4.9 20.94 4.91 8.71 13.01 13.06 8.11 4.36 17.67 4.36 4.35 0 9.01-1.03t8.65-2.96v-19.97q0-3.75-1.21-5.87-1.21-2.11-2.66-3.02-1.45-.91-1.45-.67h19.36q0-.24-1.45.49-1.45.72-2.66 2.72-1.21 2-1.21 5.63v22.02q-6.42 3.99-13.86 6.11-7.44 2.12-14.82 2.12"></path><rect width="76.96" height="86.04" x="-38.48" y="-43.02" fill="none" rx="0" ry="0" transform="translate(456.15 53.47)"></rect><path fill="#324549" d="M510.715 94.652q0 .37 1.45-.54t2.6-3.63q1.15-2.72 1.15-7.93v-59.41q0-4.96-1.15-7.56-1.15-2.6-2.6-3.57-1.45-.97-1.45-.6h43.8v12.1q-2.18-7.26-13.07-7.26h-16.82v34.36h20.81q2.42 0 4.12-.79 1.69-.78 2.54-1.63.85-.85.97-1.09v11.74q-.12-.24-.97-1.09-.85-.85-2.48-1.57-1.63-.73-4.05-.73h-20.94v34.36h18.88q5.44 0 9.38-2.23 3.93-2.24 5.62-5.75l-2.18 12.82Z"></path><rect width="47.79" height="83.7" x="-23.89" y="-41.85" fill="none" rx="0" ry="0" transform="translate(535.11 53.53)"></rect><path fill="#fff" d="M44.935 79.582q0-2.53 1.4-5.47 1.41-2.94 3.08-5.91 1.68-2.98 3.08-5.85 1.4-2.87 1.4-5.33 0-.96-.45-1.81-.44-.85-.95-1.71-.52-.85-.93-1.71-.41-.85-.41-1.88 0-1.16.93-2.25.92-1.1 2.08-1.1 0 .62.07 1.47.07.86.31 1.68t.72 1.47q.47.65 1.29.92.69-1.85 2.09-4.82t3.35-6.36q1.95-3.38 4.24-6.76 2.29-3.39 4.71-6.12 2.43-2.74 4.89-4.45 2.46-1.71 4.65-1.71 1.64 0 2.84.69 1.19.68 1.95 1.81.75 1.13 1.09 2.56.34 1.44.34 2.94 0 5.54-2.36 10.36-2.36 4.82-6.22 8.48-3.86 3.65-8.78 5.94-4.92 2.29-10.12 2.77l-1.85 2.67-7.92 19.48q-.55 1.16-1.13 1.5-.58.35-1.47.35-1.92 0-1.92-1.85m34.66-53.25q-1.91 0-3.93 1.4-2.02 1.4-4 3.66-1.98 2.25-3.76 5.06-1.78 2.8-3.14 5.57-1.37 2.76-2.16 5.23-.78 2.46-.78 4.03 0 .14.03.82.04.68.04.89 4.3-.21 8.06-2.36 3.76-2.15 6.5-5.5 2.73-3.35 4.3-7.49 1.58-4.13 1.58-8.24 0-1.91-.41-2.49-.41-.58-2.33-.58" paint-order="stroke"></path><rect width="41.77" height="59.55" x="-20.89" y="-29.77" fill="none" rx="0" ry="0" transform="translate(66.32 52.16)"></rect></svg></svg>