<svg version="1.2" xmlns="http://www.w3.org/2000/svg" viewBox="0 0 1148 335" width="1148" height="335">
	<title>Prezenti_horizontal logo_ dark forest</title>
	<style>
		.s0 { fill: #112122 } 
	</style>
	<g>
		<path class="s0" d="m413 105c-7.1-4.1-15-6.2-23.4-6.2h-41.2v140.4h19.9v-48.7h21.3c8.4 0 16.3-2.1 23.4-6.1 7.2-4.1 12.9-9.7 17.1-16.8 4.2-7 6.4-14.7 6.4-22.9 0-8.1-2.2-15.8-6.4-22.9-4.2-7-9.9-12.6-17.1-16.8zm-23.4 66.4h-21.3v-53.1h21.3c4.8 0 9.3 1.2 13.5 3.5 4.1 2.4 7.5 5.7 9.9 9.7 2.4 4 3.6 8.5 3.6 13.2 0 4.8-1.2 9.3-3.6 13.4-2.4 4-5.8 7.3-9.9 9.7-4.2 2.4-8.7 3.6-13.5 3.6z"/>
		<path class="s0" d="m518 139.9c-7.3-5.6-15.8-8.5-25.2-8.5-6 0-11.8 1.3-17.3 3.8l-0.4 0.2c-6.8 3.1-12.3 8-16.5 14.5-4.2 6.4-6.3 13.6-6.3 21.4v67.9h19.6v-67.9c0-5.6 2-10.4 6.2-14.5 4.2-4.1 9-6.1 14.7-6.1 2.8 0 5.6 0.6 8.4 1.8l1.3 0.6 18.8-10.7-3.3-2.5z"/>
		<path class="s0" d="m598.5 139.7c-8.4-4.8-17.6-7.3-27.4-7.3-9.8 0-19 2.5-27.4 7.3-8.3 4.8-15 11.4-19.9 19.6-4.9 8.1-7.4 17.2-7.4 27 0 9.8 2.5 18.7 7.4 27 4.9 8.2 11.6 14.8 19.9 19.6 8.4 4.9 17.6 7.3 27.4 7.3 9.8 0 18.8-2.4 27-7 8.2-4.7 14.8-11 19.7-18.8l1.5-2.4-17-9.7-1.4 2.3c-3.2 5-7.4 8.9-12.6 11.8-5.2 2.9-11 4.3-17.2 4.3-8.4 0-15.7-2.6-22.3-8-5.6-4.6-9.3-10.1-11.2-16.7h87.6l0.2-2.5c0.3-3.1 0.5-5.5 0.5-7.2 0-9.8-2.5-18.9-7.4-27.1-4.9-8.1-11.6-14.7-20-19.5zm-61.5 37.6c0.5-4 2-7.6 4.6-11.2 3.3-4.4 7.7-7.9 13-10.5 10.9-5.2 22.6-5.1 33.1 0 5.2 2.6 9.6 6.1 12.9 10.5 2.6 3.6 4.1 7.2 4.6 11.2h-68.2z"/>
		<path fill-rule="evenodd" class="s0" d="m641.7 152.6h61.1l-61.1 69v17.6h89v-19.3h-60.9l60.9-69.1v-17.7h-89v19.5z"/>
		<path class="s0" d="m824.5 139.7c-8.3-4.8-17.5-7.3-27.3-7.3-9.8 0-19.1 2.5-27.4 7.3-8.4 4.8-15.1 11.4-20 19.6-4.9 8.1-7.4 17.2-7.4 27 0 9.8 2.5 18.7 7.4 27 4.9 8.2 11.6 14.8 20 19.6 8.3 4.9 17.6 7.3 27.4 7.3 9.8 0 18.7-2.4 26.9-7 8.2-4.7 14.9-11 19.8-18.8l1.5-2.4-17-9.7-1.5 2.3c-3.1 5-7.4 8.9-12.6 11.8-5.1 2.9-10.9 4.3-17.1 4.3-8.5 0-15.8-2.6-22.3-8-5.7-4.6-9.4-10.1-11.3-16.7h87.7l0.2-2.5c0.3-3.1 0.4-5.5 0.4-7.2 0-9.8-2.5-18.9-7.4-27.1-4.9-8.1-11.6-14.7-19.9-19.5zm-61.5 37.6c0.4-4 2-7.6 4.6-11.2 3.3-4.4 7.7-7.9 13-10.5 10.8-5.2 22.6-5.1 33 0 5.3 2.6 9.6 6.1 12.9 10.5 2.7 3.6 4.2 7.2 4.7 11.2h-68.3z"/>
		<path class="s0" d="m935.3 138c-6.7-3.8-14-5.8-21.9-5.8-5.6 0-10.9 1.1-15.9 3.2q-4.3 1.9-8.1 4.8v-5.3h-19.6v104.3h19.6v-64c0-4.2 1.1-8.2 3.2-11.7 2.2-3.6 5.1-6.5 8.8-8.6 3.8-2.1 7.7-3.1 12-3.1 4.3 0 8.3 1 12 3.1 3.7 2.2 6.6 5 8.8 8.6 2.1 3.5 3.2 7.5 3.2 11.7v64h19.8v-64c0-7.8-2-15-5.9-21.6-4-6.5-9.3-11.8-16-15.6z"/>
		<path fill-rule="evenodd" class="s0" d="m1010 98.8h-19.9v33.4h-17.1v19.3h17.1v87.7h19.9v-87.7h17.1v-19.3h-17.1v-33.4z"/>
		<path fill-rule="evenodd" class="s0" d="m1047 142.8h19.8v96.4h-19.8z"/>
		<path class="s0" d="m1057 127.6c3.3 0 6.1-1.2 8.4-3.5 2.3-2.2 3.5-5.1 3.5-8.4 0-3.3-1.2-5.9-3.5-8.2-2.3-2.3-5.2-3.5-8.4-3.5-3.2 0-6.2 1.2-8.6 3.5-2.3 2.3-3.5 5-3.5 8.2 0 3.2 1.2 6.2 3.5 8.4 2.3 2.3 5.2 3.5 8.6 3.5z"/>
	</g>
	<g>
		<path fill-rule="evenodd" class="s0" d="m87.9 151.7v43.1h58.5l43.9-43.1h-102.4z"/>
		<path fill-rule="evenodd" class="s0" d="m87.8 252.2l35.3-34.6h-35.2l-0.1 34.6z"/>
		<path fill-rule="evenodd" class="s0" d="m211.7 217.6v-54.5l-55.8 54.5h55.8z"/>
		<path class="s0" d="m206.9 85.8h-104.3c-8.1 0-14.7 6.4-14.7 14.3v28.7h125.7l32.1-31.4c-11.1-7.3-24.5-11.5-38.8-11.6z"/>
		<path class="s0" d="m235.1 138.7v78.9c24.9-10.8 42.5-35.3 42.5-63.7 0-16-5.5-30.6-14.8-42.3 0 0-27.7 27.1-27.7 27.1z"/>
	</g>
</svg>