<svg xmlns="http://www.w3.org/2000/svg" version="1.1" xmlns:xlink="http://www.w3.org/1999/xlink" width="1500" height="282" viewBox="0 0 1500 282"><svg xml:space="preserve" width="1500" height="282" data-version="2" data-id="lg_9aJRL1f66Mcpv2JtH2" viewBox="0 0 570 282" x="0" y="0"><rect width="100%" height="100%" fill="transparent"></rect><path d="m21.343 163.283.33-1.99h34.53q20.42 0 30.29 6.97 9.88 6.97 9.88 26.31t-10.21 28.55q-10.21 9.21-29.96 9.21h-12.78v42l11.45.67q0 .16-.17 2.49l-33.2.16q0-1.49.17-2.32l8.63-1.16q1.16-.17 1.83-1.5v-106.24q-.67-1.49-1.83-1.66l-8.8-.99q-.16-.17-.16-.5m34.03.5h-11.95v66.06h11.95q14.94 0 22.32-7.96 7.39-7.97 7.39-26.65 0-18.67-7.3-25.06-7.31-6.39-22.41-6.39"></path><rect width="75.03" height="116.36" x="-37.52" y="-58.18" fill="none" rx="0" ry="0" transform="translate(59.36 219.97)"></rect><path d="M140.193 161.293q0 .16.17 2.49l-11.45.99v109.4h45.81l3.32-26.56 3.16.83-2.49 29.05h-38.52l-33.36.16.16-2.32 8.64-1.16q1.66-.17 1.99-2.16v-105.08q-.33-1.99-1.99-2.16l-8.64-.83-.16-2.49Z"></path><rect width="74.37" height="116.36" x="-37.19" y="-58.18" fill="none" rx="0" ry="0" transform="translate(144.52 219.97)"></rect><path d="m190.823 163.783.17-2.49h71.05l-.17.49 2.16 23.41-3.32 1.33-2.66-21.91h-45.15v53.61h39.68q.83.17 1.49-.41t.66-1.58l.67-11.45 2.65-.33v28.38q-.16 0-2.49.17l-.66-11.46h-42v52.63h49.64l3.15-26.56 3.15.83-2.49 29.05h-42.16l-33.37.16.17-2.32 8.63-1.16q1.66-.17 1.99-2.16v-105.08q-.33-1.99-1.99-2.16Z"></path><rect width="78.02" height="116.36" x="-39.01" y="-58.18" fill="none" rx="0" ry="0" transform="translate(230.33 219.97)"></rect><path d="m278.973 163.783.17-2.49h40.5q22.41 0 35.94 13.03 13.53 13.03 13.53 42.41 0 29.05-9.46 43.49-8.3 12.62-25.9 15.94-7.8 1.33-18.26 1.33h-3.15l-33.37.16.17-2.32 8.63-1.16q1.66-.17 1.99-2.16v-104.91q-.33-2.16-1.99-2.33Zm39.84 0h-17.76v111.22h13.61q7.97 0 13.53-.92 5.56-.91 11.62-4.31 6.06-3.41 9.54-9.38 8.47-14.11 8.47-42.83 0-29.88-11.79-42.33-10.79-11.45-27.22-11.45"></path><rect width="90.14" height="116.36" x="-45.07" y="-58.18" fill="none" rx="0" ry="0" transform="translate(324.54 219.97)"></rect><path d="M470.043 229.513q0 .17.16 2.49l-6.64.83v41.17q-2.82 1-15.02 2.57-12.2 1.58-19.84 1.58-7.63 0-13.28-1.08-5.64-1.08-11.95-4.56-6.31-3.49-10.71-9.22-4.4-5.72-7.38-15.68-2.99-9.96-2.99-23.24 0-29.39 13.44-45.82 14.11-17.26 38.52-17.26 7.47 0 16.18 1.41 8.72 1.41 12.37 2.74l1.99 23.9-3.15 1.16-2.16-17.76q-13.45-9.13-25.23-9.13-18.76 0-29.72 15.6-10.95 15.61-10.95 45.16 0 35.85 16.43 46.31 4.98 3.15 9.21 4.07 4.24.91 11.87.91 7.64 0 22.41-2.16l.67-38.18q0-1.99-2-2.32l-11.95-.83q-.16-1-.16-2.49Z"></path><rect width="87.81" height="116.86" x="-43.91" y="-58.43" fill="none" rx="0" ry="0" transform="translate(426.8 220.22)"></rect><path d="m483.653 163.783.16-2.49h71.05l-.16.49 2.15 23.41-3.32 1.33-2.65-21.91h-45.15v53.61h39.67q.83.17 1.49-.41.67-.58.67-1.58l.66-11.45 2.66-.33v28.38q-.17 0-2.49.17l-.67-11.46h-41.99v52.63h49.63l3.15-26.56 3.16.83-2.49 29.05h-42.17l-33.36.16.16-2.32 8.64-1.16q1.66-.17 1.99-2.16v-105.08q-.33-1.99-1.99-2.16Z"></path><rect width="78.02" height="116.36" x="-39.01" y="-58.18" fill="none" rx="0" ry="0" transform="translate(523.16 219.97)"></rect><path stroke="#000" stroke-width="3.44" d="M7.046 114.768h555.908"></path><path d="M311.515 2.848H264.35a6.423 6.423 0 0 0-6.416 6.415V66.54c0 4.377 3.504 8.208 8.21 8.208h35.392c.228.21.454.426.694.609v4.272h-1.992a1.037 1.037 0 0 0-1.037 1.037v8.946a1.037 1.037 0 0 0 2.074 0v-7.909h16.91v7.91a1.037 1.037 0 0 0 2.074 0v-8.947a1.037 1.037 0 0 0-1.037-1.037h-2.19v-4.72c2.243-1.871 3.872-5.043 3.872-8.493V42.465c0-1.964-1.473-3.6-3.35-3.722a3.536 3.536 0 0 0-1.94.409c-.42-1.391-1.609-2.434-3.063-2.58V3.885a1.037 1.037 0 0 0-1.037-1.037m-45.016 2.074h7.114V18l-2.953-2.113a1.04 1.04 0 0 0-1.207 0L266.498 18zm-6.489 4.341a4.346 4.346 0 0 1 4.342-4.341h.073v15.096c0 .84.952 1.334 1.642.844l3.989-2.856 3.99 2.856a1.038 1.038 0 0 0 1.641-.844V4.922h34.79v31.972c-.464-1.652-1.86-2.544-3.408-2.544a3.587 3.587 0 0 0-3.582 3.581v1.152c-.425-.032-.988.025-1.527.025a3.595 3.595 0 0 0-3.582 3.599v13.64l-3.515-3.515c-1.372-1.324-3.669-1.34-5.08.021-1.387 1.413-1.383 3.692-.033 5.039l.394.442h-24c-2.421 0-4.718 1.11-6.134 2.734zm6.134 63.411c-3.526 0-6.134-2.88-6.134-6.134a6.123 6.123 0 0 1 6.134-6.132h25.851l2.212 2.48H266.27a3.659 3.659 0 0 0-3.655 3.652 3.659 3.659 0 0 0 3.655 3.655h32.526c.244.9.703 1.945 1.023 2.48zm29.913-7.713.545.61c.646.71 1.162 1.57 1.553 2.55h-31.886c-.872 0-1.58-.71-1.58-1.58s.708-1.58 1.58-1.58zm17.645-24.7.006 14.18v.116-.012.096a1.037 1.037 0 0 0 2.074 0V42.316l-.002-.01c.009-.838.668-1.493 1.626-1.493h.009c.78.05 1.414.792 1.414 1.652v23.951c0 2.955-1.452 5.623-3.466 7.172a1.034 1.034 0 0 0-.405.823v5.218h-10.654v-4.806c0-1.512-2.114-.375-3.709-5.924-1.115-4.316-9.464-12.568-9.341-12.43a1.535 1.535 0 0 1-.014-2.143c.595-.576 1.6-.562 2.168-.014l5.272 5.272a1.037 1.037 0 0 0 1.77-.733V42.707a1.5 1.5 0 0 1 1.507-1.525c.844 0 1.528.684 1.528 1.525l.002.01V54.64a1.037 1.037 0 0 0 2.074 0v-.27l-.002-16.44c0-.97.894-1.724 1.935-1.452 1.004.256 1.17 1.245 1.103 2.862v.016c-.077 1.57-.005 15.046-.005 15.284a1.037 1.037 0 0 0 2.074 0V40.128l.001-.011c0-.73.543-1.452 1.637-1.493.772.05 1.398.785 1.398 1.637"></path></svg></svg>